<svg xmlns="http://www.w3.org/2000/svg" viewBox="0 0 314.09 314.09"><defs><style>.cls-1{fill:none;}.cls-2{fill:#fbfdfc;}.cls-3{fill:#13131e;opacity:0.5;}</style></defs><g id="Livello_2" data-name="Livello 2"><g id="Livello_10" data-name="Livello 10"><rect class="cls-1" width="314.09" height="314.09"/><path class="cls-2" d="M157,30.22A126.82,126.82,0,1,0,283.86,157,127,127,0,0,0,157,30.22ZM66.17,157A90.79,90.79,0,0,1,210.24,83.45L83.45,210.25A90.76,90.76,0,0,1,66.17,157Zm155.1,64.23a90.7,90.7,0,0,1-111.42,13.4L234.67,109.86a90.72,90.72,0,0,1-13.4,111.41Z"/><path class="cls-3" d="M234.67,109.86,109.85,234.67A90.83,90.83,0,0,0,234.67,109.86ZM157,237.92A80.72,80.72,0,0,1,126.67,232L232,126.68a80.93,80.93,0,0,1-75,111.24Z"/><path class="cls-3" d="M157,20.22C81.6,20.22,20.22,81.6,20.22,157S81.6,293.86,157,293.86,293.86,232.49,293.86,157,232.48,20.22,157,20.22Zm0,263.64A126.82,126.82,0,1,1,283.86,157,127,127,0,0,1,157,283.86Z"/><path class="cls-3" d="M157,66.17A90.8,90.8,0,0,0,83.45,210.25L210.24,83.45A90.73,90.73,0,0,0,157,66.17Zm0,10a80.08,80.08,0,0,1,37.23,9.12l-109,109A80,80,0,0,1,76.17,157,81,81,0,0,1,157,76.17Z"/></g></g></svg>